<svg xmlns="http://www.w3.org/2000/svg" width="270" height="250" viewBox="0 0 270 250">
  <g fill="none" fill-rule="evenodd" transform="translate(7 10.5)">
    <polygon stroke="#FFF" stroke-width="9" points="19.3 115 1 169.6 18.1 224.5 74.8 209.5 108.6 233.5 148.6 233.4 179.8 209.5 236.5 224.5 253 169.6 236.5 115.5 180.5 100 147 68.5 222.5 6.5 161.85 27.3 93.6 27.3 29.5 7.5 105 68 71.5 100.5"/>
    <polygon stroke="#FFF" stroke-width="9" points="226.5 7 145.9 68.4 182.9 99.7 235.2 115 246.8 101.5 238.5 95.5 246.8 90.5 238.5 86 251.6 79.7 242.1 76 252.8 34.3 242.1 .5"/>
    <polygon stroke="#FFF" stroke-width="9" points="81.5 7 .9 68.4 37.9 99.7 90.2 115 101.8 101.5 93.5 95.5 101.8 90.5 93.5 86 106.6 79.7 97.1 76 107.8 34.3 97.1 .5" transform="matrix(-1 0 0 1 108.7 0)"/>
    <polygon fill="#FFF" points="68.2 146.347 103.862 133.15 118.2 161.15"/>
    <polygon fill="#FFF" points="137.3 161.15 155.548 133.15 187.3 145.634"/>
    <polygon fill="#FFF" points="107.8 192.4 105.5 215 108.5 213 146 213 149 215 145.9 191.5 141 189 113 189"/>
  </g>
</svg>
