<svg xmlns="http://www.w3.org/2000/svg" viewBox="0 0 270 250">
  <g fill="none" fill-rule="evenodd" stroke="#FFF" stroke-width="4" transform="translate(6 7.5)">
    <polygon points="13.4 0 0 37.3 9.3 78.7 2.9 83.5 11.9 88.8 5.8 93.6 13.4 102.7 6.7 107 20.3 118 2 172.6 19.1 227.5 75.8 212.5 109.6 236.5 149.6 236.4 180.8 212.5 237.5 227.5 254 172.6 237.5 118.5 251 102.7 243.1 98.85 251 93.6 244.6 88.8 255.8 83.5 247.3 78.7 256 37.3 243.1 0 162.85 30.3 94.6 30.3"/>
    <polygon points="227.5 10 146.9 71.4 183.9 102.7 236.2 118 247.8 104.5 239.5 98.5 247.8 93.5 239.5 89 252.6 82.7 243.1 79 253.8 37.3 243.1 3.5"/>
    <polygon points="82.5 10 1.9 71.4 38.9 102.7 91.2 118 102.8 104.5 94.5 98.5 102.8 93.5 94.5 89 107.6 82.7 98.1 79 108.8 37.3 98.1 3.5" transform="matrix(-1 0 0 1 110.7 0)"/>
    <polygon points="80.6 149.7 100 142.3 107.8 158"/>
    <polygon points="149.6 158 159.6 142.3 177 149.3"/>
    <polygon points="108.8 195.4 106.5 218 109.5 216 147 216 150 218 146.9 194.5 142 192 114 192"/>
  </g>
</svg>
