<svg xmlns="http://www.w3.org/2000/svg" width="270" height="250" viewBox="0 0 270 250">
  <g fill="none" fill-rule="evenodd">
    <rect width="365" height="365" x="-24.5" y="-49.5" fill="#293539" stroke="#979797"/>
    <g stroke="#FFF" transform="translate(6 7.5)">
      <polygon stroke-width="9" points="13.4 0 0 37.3 9.3 78.7 2.9 83.5 11.9 88.8 5.8 93.6 13.4 102.7 6.7 107 20.3 118 2 172.6 19.1 227.5 75.8 212.5 109.6 236.5 149.6 236.4 180.8 212.5 237.5 227.5 254 172.6 237.5 118.5 251 102.7 243.1 98.85 251 93.6 244.6 88.8 255.8 83.5 247.3 78.7 256 37.3 243.1 0 162.85 30.3 94.6 30.3"/>
      <polygon stroke-width="9" points="227.5 10 146.9 71.4 183.9 102.7 236.2 118 247.8 104.5 239.5 98.5 247.8 93.5 239.5 89 252.6 82.7 243.1 79 253.8 37.3 243.1 3.5"/>
      <polygon stroke-width="9" points="82.5 10 1.9 71.4 38.9 102.7 91.2 118 102.8 104.5 94.5 98.5 102.8 93.5 94.5 89 107.6 82.7 98.1 79 108.8 37.3 98.1 3.5" transform="matrix(-1 0 0 1 110.7 0)"/>
      <path stroke-width="6" d="M71.3551813 150.015535L101.475104 138.526492 113.585176 162.901893 71.3551813 150.015535zM142.628347 163.361223L158.40819 138.58687 185.865117 149.63276 142.628347 163.361223z"/>
      <polygon stroke-width="6" points="108.8 195.4 106.5 218 109.5 216 147 216 150 218 146.9 194.5 142 192 114 192"/>
    </g>
  </g>
</svg>
