<svg xmlns="http://www.w3.org/2000/svg" width="270" height="250" viewBox="0 0 270 250">
  <g fill="#FFF" fill-rule="evenodd" transform="translate(-18 -50.5)">
    <path d="M43.3,175 L95.5,160.5 L130,129 L51.5,68.5 L118.6,88.3 L186.85,88.3 L252.5,68.5 L172,129.5 L208.5,159 L260.5,175.5 L278,230.6 L261.5,285.5 L204.8,270.5 L173.6,294.4 L133.6,294.5 L99.8,270.5 L43.1,285.5 L26,230.6 L43.3,175 Z M93.2,207.347452 L143.2,222.15 L128.861765,194.15 L93.2,207.347452 Z M162.3,222.15 L212.3,206.634076 L180.548175,194.15 L162.3,222.15 Z M132.8,253.4 L130.5,276 L133.5,274 L171,274 L174,276 L170.9,252.5 L166,250 L138,250 L132.8,253.4 Z"/>
    <polygon points="251.5 68 170.9 129.4 207.9 160.7 260.2 176 271.8 162.5 263.5 156.5 271.8 151.5 263.5 147 276.6 140.7 267.1 137 277.8 95.3 267.1 61.5"/>
    <polygon points="106.5 68 25.9 129.4 62.9 160.7 115.2 176 126.8 162.5 118.5 156.5 126.8 151.5 118.5 147 131.6 140.7 122.1 137 132.8 95.3 122.1 61.5" transform="matrix(-1 0 0 1 158.7 0)"/>
  </g>
</svg>
