<svg xmlns="http://www.w3.org/2000/svg" width="270" height="250" viewBox="0 0 270 250">
  <path fill="#FFF" fill-rule="evenodd" stroke="#FFF" stroke-width="4" d="M66.4,58 L147.6,88.3 L215.85,88.3 L296.1,58 L309,95.3 L300.3,136.7 L308.8,141.5 L297.6,146.8 L304,151.6 L296.1,156.85 L304,160.7 L290.5,176.5 L307,230.6 L290.5,285.5 L233.8,270.5 L202.6,294.4 L162.6,294.5 L128.8,270.5 L72.1,285.5 L55,230.6 L73.3,176 L59.7,165 L66.4,160.7 L58.8,151.6 L64.9,146.8 L55.9,141.5 L62.3,136.7 L53,95.3 L66.4,58 Z M109.8,207.060828 L173.8,227.15 L155.447059,189.15 L109.8,207.060828 Z M187.8,227.15 L253.8,206.092675 L211.887591,189.15 L187.8,227.15 Z M160.8,253.4 L158.5,276 L161.5,274 L199,274 L202,276 L198.9,252.5 L194,250 L166,250 L160.8,253.4 Z M278.747568,71.7674672 L203.35,128.609389 L237.961787,157.585808 L286.886015,171.75 L297.737278,161.252183 L290.973012,154.697598 L299.737278,151.068777 L289.973012,144.902838 L303.227456,141.070524 L295.340645,136.645197 L303.35,97.0408297 L293.340645,65.75 L278.747568,71.7674672 Z M83.4603835,71.7674672 L69.1591674,65.75 L59.35,97.0408297 L68.1591674,134.645197 L61.4500935,141.070524 L70.4594481,143.902838 L64.8504677,151.068777 L70.4594481,156.697598 L65.8504677,166.252183 L75.4847053,172.75 L123.430449,157.585808 L157.35,128.609389 L83.4603835,71.7674672 Z" transform="translate(-47 -51.5)"/>
</svg>
