<svg xmlns="http://www.w3.org/2000/svg" viewBox="0 0 447 73">
  <g fill="none" fill-rule="evenodd">
    <path fill="#CD5E6E" fill-rule="nonzero" d="M4.09,39.04 C4.09,35.773317 4.556662,32.8916791 5.49,30.395 C6.423338,27.8983209 7.7299916,25.7983419 9.41,24.095 C11.0900084,22.3916582 13.1199881,21.0966711 15.5,20.21 C17.8800119,19.3233289 20.5166522,18.88 23.41,18.88 C26.0700133,18.88 28.5199888,19.346662 30.76,20.28 C33.0000112,21.213338 34.9483251,22.4966585 36.605,24.13 C38.261675,25.7633415 39.556662,27.7233219 40.49,30.01 C41.423338,32.2966781 41.89,34.7699867 41.89,37.43 C41.89,40.1366802 41.4350046,42.6216553 40.525,44.885 C39.6149955,47.1483447 38.3550081,49.0966585 36.745,50.73 C35.134992,52.3633415 33.2450109,53.6349955 31.075,54.545 C28.9049892,55.4550046 26.5366795,55.91 23.97,55.91 C21.3099867,55.91 18.9533436,55.3966718 16.9,54.37 C14.8466564,53.3433282 13.2366725,52.0833408 12.07,50.59 L12.07,69 L4.09,69 L4.09,39.04 Z M22.85,48.84 C24.4366746,48.84 25.8949934,48.5483363 27.225,47.965 C28.5550067,47.3816638 29.6983286,46.5766718 30.655,45.55 C31.6116715,44.5233282 32.3466641,43.310007 32.86,41.91 C33.3733359,40.509993 33.63,38.9933415 33.63,37.36 C33.63,35.7733254 33.3733359,34.2916736 32.86,32.915 C32.3466641,31.5383264 31.6116715,30.3483383 30.655,29.345 C29.6983286,28.3416616 28.5550067,27.5483363 27.225,26.965 C25.8949934,26.3816638 24.4366746,26.09 22.85,26.09 C21.2633254,26.09 19.8050067,26.3699972 18.475,26.93 C17.1449934,27.4900028 16.0016715,28.2599951 15.045,29.24 C14.0883286,30.2200049 13.3416694,31.3983265 12.805,32.775 C12.2683307,34.1516735 12,35.6799916 12,37.36 C12,38.9933415 12.2683307,40.509993 12.805,41.91 C13.3416694,43.310007 14.076662,44.5233282 15.01,45.55 C15.943338,46.5766718 17.0749934,47.3816638 18.405,47.965 C19.7350067,48.5483363 21.2166585,48.84 22.85,48.84 Z M66.53,18.88 C69.2366802,18.88 71.7683216,19.346662 74.125,20.28 C76.4816785,21.213338 78.5233247,22.508325 80.25,24.165 C81.9766753,25.8216749 83.3299951,27.7816554 84.31,30.045 C85.2900049,32.3083446 85.78,34.7699867 85.78,37.43 C85.78,40.0433464 85.2900049,42.4816553 84.31,44.745 C83.3299951,47.0083447 81.9766753,48.968325 80.25,50.625 C78.5233247,52.281675 76.4816785,53.5883286 74.125,54.545 C71.7683216,55.5016715 69.2366802,55.98 66.53,55.98 C63.8233198,55.98 61.2916785,55.5016715 58.935,54.545 C56.5783216,53.5883286 54.5366753,52.281675 52.81,50.625 C51.0833247,48.968325 49.7300049,47.0083447 48.75,44.745 C47.7699951,42.4816553 47.28,40.0433464 47.28,37.43 C47.28,34.7699867 47.7699951,32.3083446 48.75,30.045 C49.7300049,27.7816554 51.0833247,25.8216749 52.81,24.165 C54.5366753,22.508325 56.5783216,21.213338 58.935,20.28 C61.2916785,19.346662 63.8233198,18.88 66.53,18.88 Z M66.53,48.91 C68.1166746,48.91 69.5866599,48.6183362 70.94,48.035 C72.2933401,47.4516637 73.4483286,46.6350052 74.405,45.585 C75.3616715,44.5349948 76.1083307,43.3216736 76.645,41.945 C77.1816694,40.5683264 77.45,39.0633415 77.45,37.43 C77.45,35.7966585 77.1816694,34.2683404 76.645,32.845 C76.1083307,31.4216595 75.3616715,30.1966718 74.405,29.17 C73.4483286,28.1433282 72.2933401,27.3383362 70.94,26.755 C69.5866599,26.1716637 68.1166746,25.88 66.53,25.88 C64.8966585,25.88 63.4150067,26.1716637 62.085,26.755 C60.7549934,27.3383362 59.6116715,28.1433282 58.655,29.17 C57.6983286,30.1966718 56.9516694,31.4216595 56.415,32.845 C55.8783307,34.2683404 55.61,35.7966585 55.61,37.43 C55.61,39.0633415 55.8783307,40.5683264 56.415,41.945 C56.9516694,43.3216736 57.6983286,44.5349948 58.655,45.585 C59.6116715,46.6350052 60.7549934,47.4516637 62.085,48.035 C63.4150067,48.6183362 64.8966585,48.91 66.53,48.91 Z M110.35,18.88 C113.05668,18.88 115.588322,19.346662 117.945,20.28 C120.301678,21.213338 122.343325,22.508325 124.07,24.165 C125.796675,25.8216749 127.149995,27.7816554 128.13,30.045 C129.110005,32.3083446 129.6,34.7699867 129.6,37.43 C129.6,40.0433464 129.110005,42.4816553 128.13,44.745 C127.149995,47.0083447 125.796675,48.968325 124.07,50.625 C122.343325,52.281675 120.301678,53.5883286 117.945,54.545 C115.588322,55.5016715 113.05668,55.98 110.35,55.98 C107.64332,55.98 105.111678,55.5016715 102.755,54.545 C100.398322,53.5883286 98.3566753,52.281675 96.63,50.625 C94.9033247,48.968325 93.5500049,47.0083447 92.57,44.745 C91.5899951,42.4816553 91.1,40.0433464 91.1,37.43 C91.1,34.7699867 91.5899951,32.3083446 92.57,30.045 C93.5500049,27.7816554 94.9033247,25.8216749 96.63,24.165 C98.3566753,22.508325 100.398322,21.213338 102.755,20.28 C105.111678,19.346662 107.64332,18.88 110.35,18.88 Z M110.35,48.91 C111.936675,48.91 113.40666,48.6183362 114.76,48.035 C116.11334,47.4516637 117.268329,46.6350052 118.225,45.585 C119.181671,44.5349948 119.928331,43.3216736 120.465,41.945 C121.001669,40.5683264 121.27,39.0633415 121.27,37.43 C121.27,35.7966585 121.001669,34.2683404 120.465,32.845 C119.928331,31.4216595 119.181671,30.1966718 118.225,29.17 C117.268329,28.1433282 116.11334,27.3383362 114.76,26.755 C113.40666,26.1716637 111.936675,25.88 110.35,25.88 C108.716659,25.88 107.235007,26.1716637 105.905,26.755 C104.574993,27.3383362 103.431671,28.1433282 102.475,29.17 C101.518329,30.1966718 100.771669,31.4216595 100.235,32.845 C99.6983307,34.2683404 99.43,35.7966585 99.43,37.43 C99.43,39.0633415 99.6983307,40.5683264 100.235,41.945 C100.771669,43.3216736 101.518329,44.5349948 102.475,45.585 C103.431671,46.6350052 104.574993,47.4516637 105.905,48.035 C107.235007,48.6183362 108.716659,48.91 110.35,48.91 Z M136.67,7.12 C136.67,5.8599937 137.04333,4.9266697 137.79,4.32 C138.53667,3.7133303 139.58666,3.41 140.94,3.41 C141.780004,3.41 142.549997,3.51499895 143.25,3.725 C143.950004,3.93500105 144.416666,4.0866662 144.65,4.18 L144.65,55 L136.67,55 L136.67,7.12 Z"/>
    <path fill="#B145AA" fill-rule="nonzero" d="M153.61,13.63 C153.61,12.3233268 153.98333,11.3783362 154.73,10.795 C155.47667,10.2116637 156.503327,9.92 157.81,9.92 C158.650004,9.92 159.431663,10.024999 160.155,10.235 C160.878337,10.445001 161.356666,10.5966662 161.59,10.69 L161.59,19.86 L171.74,19.86 C173.280008,19.86 174.364997,20.1749968 174.995,20.805 C175.625003,21.4350032 175.94,22.3566606 175.94,23.57 C175.94,24.3633373 175.823335,25.0983299 175.59,25.775 C175.356666,26.45167 175.170001,26.9299986 175.03,27.21 L161.59,27.21 L161.59,42.82 C161.59,44.0333394 161.753332,45.0249961 162.08,45.795 C162.406668,46.5650039 162.861664,47.183331 163.445,47.65 C164.028336,48.116669 164.704996,48.4433324 165.475,48.63 C166.245004,48.8166676 167.049996,48.91 167.89,48.91 C169.24334,48.91 170.503328,48.7000021 171.67,48.28 C172.836673,47.8599979 173.676664,47.4633352 174.19,47.09 L177.41,52.41 C177.036665,52.6900014 176.51167,53.0399979 175.835,53.46 C175.15833,53.8800021 174.330005,54.2766648 173.35,54.65 C172.369995,55.0233352 171.273339,55.338332 170.06,55.595 C168.846661,55.8516679 167.516674,55.98 166.07,55.98 C161.963313,55.98 158.860011,54.918344 156.76,52.795 C154.65999,50.6716561 153.61,47.8833506 153.61,44.43 L153.61,13.63 Z M199.39,18.88 C202.09668,18.88 204.628322,19.346662 206.985,20.28 C209.341678,21.213338 211.383325,22.508325 213.11,24.165 C214.836675,25.8216749 216.189995,27.7816554 217.17,30.045 C218.150005,32.3083446 218.64,34.7699867 218.64,37.43 C218.64,40.0433464 218.150005,42.4816553 217.17,44.745 C216.189995,47.0083447 214.836675,48.968325 213.11,50.625 C211.383325,52.281675 209.341678,53.5883286 206.985,54.545 C204.628322,55.5016715 202.09668,55.98 199.39,55.98 C196.68332,55.98 194.151678,55.5016715 191.795,54.545 C189.438322,53.5883286 187.396675,52.281675 185.67,50.625 C183.943325,48.968325 182.590005,47.0083447 181.61,44.745 C180.629995,42.4816553 180.14,40.0433464 180.14,37.43 C180.14,34.7699867 180.629995,32.3083446 181.61,30.045 C182.590005,27.7816554 183.943325,25.8216749 185.67,24.165 C187.396675,22.508325 189.438322,21.213338 191.795,20.28 C194.151678,19.346662 196.68332,18.88 199.39,18.88 Z M199.39,48.91 C200.976675,48.91 202.44666,48.6183362 203.8,48.035 C205.15334,47.4516637 206.308329,46.6350052 207.265,45.585 C208.221671,44.5349948 208.968331,43.3216736 209.505,41.945 C210.041669,40.5683264 210.31,39.0633415 210.31,37.43 C210.31,35.7966585 210.041669,34.2683404 209.505,32.845 C208.968331,31.4216595 208.221671,30.1966718 207.265,29.17 C206.308329,28.1433282 205.15334,27.3383362 203.8,26.755 C202.44666,26.1716637 200.976675,25.88 199.39,25.88 C197.756659,25.88 196.275007,26.1716637 194.945,26.755 C193.614993,27.3383362 192.471671,28.1433282 191.515,29.17 C190.558329,30.1966718 189.811669,31.4216595 189.275,32.845 C188.738331,34.2683404 188.47,35.7966585 188.47,37.43 C188.47,39.0633415 188.738331,40.5683264 189.275,41.945 C189.811669,43.3216736 190.558329,44.5349948 191.515,45.585 C192.471671,46.6350052 193.614993,47.4516637 194.945,48.035 C196.275007,48.6183362 197.756659,48.91 199.39,48.91 Z M229.77,61.02 C229.956668,61.1133338 230.364997,61.2883321 230.995,61.545 C231.625003,61.801668 232.418329,62.058332 233.375,62.315 C234.331671,62.571668 235.45166,62.7933324 236.735,62.98 C238.01834,63.1666676 239.406659,63.26 240.9,63.26 C242.486675,63.26 244.049992,63.0850017 245.59,62.735 C247.130008,62.3849982 248.506661,61.7550045 249.72,60.845 C250.933339,59.9349954 251.924996,58.6633415 252.695,57.03 C253.465004,55.3966585 253.85,53.2966795 253.85,50.73 L253.85,49.89 C252.776661,51.1500063 251.22501,52.3399944 249.195,53.46 C247.16499,54.5800056 244.726681,55.14 241.88,55.14 C239.266654,55.14 236.863344,54.7083376 234.67,53.845 C232.476656,52.9816623 230.586675,51.7683411 229,50.205 C227.413325,48.6416588 226.176671,46.7633443 225.29,44.57 C224.403329,42.3766557 223.96,39.9500133 223.96,37.29 C223.96,34.6299867 224.438329,32.1800112 225.395,29.94 C226.351671,27.6999888 227.669992,25.7633415 229.35,24.13 C231.030008,22.4966585 233.048322,21.213338 235.405,20.28 C237.761678,19.346662 240.339986,18.88 243.14,18.88 C245.800013,18.88 248.261655,19.2766627 250.525,20.07 C252.788345,20.8633373 254.759992,22.0766585 256.44,23.71 C258.120008,25.3433415 259.426662,27.4199874 260.36,29.94 C261.293338,32.4600126 261.76,35.4233163 261.76,38.83 L261.76,48.91 C261.76,52.5966851 261.258338,55.7583202 260.255,58.395 C259.251662,61.0316799 257.863342,63.1899916 256.09,64.87 C254.316658,66.5500084 252.205012,67.7749961 249.755,68.545 C247.304988,69.3150039 244.633348,69.7 241.74,69.7 C239.826657,69.7 238.088341,69.5950011 236.525,69.385 C234.961659,69.174999 233.573339,68.9183349 232.36,68.615 C231.146661,68.3116651 230.143337,68.0083348 229.35,67.705 C228.556663,67.4016651 227.973335,67.1566676 227.6,66.97 L229.77,61.02 Z M243.07,48.42 C244.656675,48.42 246.103327,48.1400028 247.41,47.58 C248.716673,47.0199972 249.836662,46.2500049 250.77,45.27 C251.703338,44.2899951 252.438331,43.1233401 252.975,41.77 C253.511669,40.4166599 253.78,38.9233415 253.78,37.29 C253.78,35.7033254 253.511669,34.2216735 252.975,32.845 C252.438331,31.4683264 251.703338,30.2783384 250.77,29.275 C249.836662,28.2716616 248.716673,27.4900028 247.41,26.93 C246.103327,26.3699972 244.656675,26.09 243.07,26.09 C241.436659,26.09 239.955007,26.3816638 238.625,26.965 C237.294993,27.5483363 236.163338,28.3533282 235.23,29.38 C234.296662,30.4066718 233.573336,31.5966599 233.06,32.95 C232.546664,34.3033401 232.29,35.7499923 232.29,37.29 C232.29,40.6500168 233.26999,43.3449899 235.23,45.375 C237.19001,47.4050101 239.803317,48.42 243.07,48.42 Z M300.4,52.41 C300.026665,52.6433345 299.443337,52.9699979 298.65,53.39 C297.856663,53.8100021 296.865006,54.2066648 295.675,54.58 C294.484994,54.9533352 293.108341,55.2799986 291.545,55.56 C289.981659,55.8400014 288.266676,55.98 286.4,55.98 C283.786654,55.98 281.348345,55.5833373 279.085,54.79 C276.821655,53.9966627 274.838342,52.8183412 273.135,51.255 C271.431658,49.6916588 270.090005,47.7783447 269.11,45.515 C268.129995,43.2516553 267.64,40.6500147 267.64,37.71 C267.64,34.909986 268.118329,32.3550115 269.075,30.045 C270.031671,27.7349884 271.361658,25.751675 273.065,24.095 C274.768342,22.4383251 276.774988,21.1550046 279.085,20.245 C281.395012,19.3349954 283.926653,18.88 286.68,18.88 C289.106679,18.88 291.253324,19.1949969 293.12,19.825 C294.986676,20.4550032 296.56166,21.2949948 297.845,22.345 C299.12834,23.3950052 300.096663,24.619993 300.75,26.02 C301.403337,27.420007 301.73,28.9133254 301.73,30.5 C301.73,32.1333415 301.42667,33.6149933 300.82,34.945 C300.21333,36.2750067 299.140008,37.4183285 297.6,38.375 C296.059992,39.3316715 293.983346,40.0783306 291.37,40.615 C288.756654,41.1516694 285.443353,41.42 281.43,41.42 C280.496662,41.42 279.621671,41.4083334 278.805,41.385 C277.988329,41.3616665 277.113338,41.3266669 276.18,41.28 C276.553335,43.6600119 277.708324,45.5849927 279.645,47.055 C281.581676,48.5250074 284.346649,49.26 287.94,49.26 C289.153339,49.26 290.273328,49.1666676 291.3,48.98 C292.326672,48.7933324 293.248329,48.5600014 294.065,48.28 C294.881671,47.9999986 295.581664,47.7200014 296.165,47.44 C296.748336,47.1599986 297.179999,46.9500007 297.46,46.81 L300.4,52.41 Z M275.83,35.82 C276.903339,35.8666669 277.929995,35.89 278.91,35.89 L281.85,35.89 C284.41668,35.89 286.493325,35.7266683 288.08,35.4 C289.666675,35.0733317 290.903329,34.6533359 291.79,34.14 C292.676671,33.6266641 293.259999,33.0433366 293.54,32.39 C293.820001,31.7366634 293.96,31.0600035 293.96,30.36 C293.96,28.5866578 293.24834,27.2566711 291.825,26.37 C290.40166,25.4833289 288.640011,25.04 286.54,25.04 C284.813325,25.04 283.296673,25.3433303 281.99,25.95 C280.683327,26.5566697 279.586671,27.3616616 278.7,28.365 C277.813329,29.3683384 277.125002,30.5233268 276.635,31.83 C276.144998,33.1366732 275.876667,34.4666599 275.83,35.82 Z M307.89,13.63 C307.89,12.3233268 308.26333,11.3783362 309.01,10.795 C309.75667,10.2116637 310.783327,9.92 312.09,9.92 C312.930004,9.92 313.711663,10.024999 314.435,10.235 C315.158337,10.445001 315.636666,10.5966662 315.87,10.69 L315.87,19.86 L326.02,19.86 C327.560008,19.86 328.644997,20.1749968 329.275,20.805 C329.905003,21.4350032 330.22,22.3566606 330.22,23.57 C330.22,24.3633373 330.103335,25.0983299 329.87,25.775 C329.636666,26.45167 329.450001,26.9299986 329.31,27.21 L315.87,27.21 L315.87,42.82 C315.87,44.0333394 316.033332,45.0249961 316.36,45.795 C316.686668,46.5650039 317.141664,47.183331 317.725,47.65 C318.308336,48.116669 318.984996,48.4433324 319.755,48.63 C320.525004,48.8166676 321.329996,48.91 322.17,48.91 C323.52334,48.91 324.783328,48.7000021 325.95,48.28 C327.116673,47.8599979 327.956664,47.4633352 328.47,47.09 L331.69,52.41 C331.316665,52.6900014 330.79167,53.0399979 330.115,53.46 C329.43833,53.8800021 328.610005,54.2766648 327.63,54.65 C326.649995,55.0233352 325.553339,55.338332 324.34,55.595 C323.126661,55.8516679 321.796674,55.98 320.35,55.98 C316.243313,55.98 313.140011,54.918344 311.04,52.795 C308.93999,50.6716561 307.89,47.8833506 307.89,44.43 L307.89,13.63 Z M335.82,7.12 C335.82,5.8599937 336.19333,4.9266697 336.94,4.32 C337.68667,3.7133303 338.73666,3.41 340.09,3.41 C340.930004,3.41 341.699997,3.51499895 342.4,3.725 C343.100004,3.93500105 343.566666,4.0866662 343.8,4.18 L343.8,23.43 C344.733338,22.3099944 346.133324,21.2600049 348,20.28 C349.866676,19.2999951 352.293318,18.81 355.28,18.81 C357.426677,18.81 359.398324,19.1133303 361.195,19.72 C362.991676,20.3266697 364.543327,21.224994 365.85,22.415 C367.156673,23.6050059 368.159997,25.0866578 368.86,26.86 C369.560004,28.6333422 369.91,30.7099881 369.91,33.09 L369.91,55 L361.93,55 L361.93,35.47 C361.93,32.3899846 361.28834,30.0566746 360.005,28.47 C358.72166,26.8833254 356.516682,26.09 353.39,26.09 C350.216651,26.09 347.825008,27.0116575 346.215,28.855 C344.604992,30.6983426 343.8,33.1366515 343.8,36.17 L343.8,55 L335.82,55 L335.82,7.12 Z M409.32,52.41 C408.946665,52.6433345 408.363337,52.9699979 407.57,53.39 C406.776663,53.8100021 405.785006,54.2066648 404.595,54.58 C403.404994,54.9533352 402.028341,55.2799986 400.465,55.56 C398.901659,55.8400014 397.186676,55.98 395.32,55.98 C392.706654,55.98 390.268345,55.5833373 388.005,54.79 C385.741655,53.9966627 383.758342,52.8183412 382.055,51.255 C380.351658,49.6916588 379.010005,47.7783447 378.03,45.515 C377.049995,43.2516553 376.56,40.6500147 376.56,37.71 C376.56,34.909986 377.038329,32.3550115 377.995,30.045 C378.951671,27.7349884 380.281658,25.751675 381.985,24.095 C383.688342,22.4383251 385.694988,21.1550046 388.005,20.245 C390.315012,19.3349954 392.846653,18.88 395.6,18.88 C398.026679,18.88 400.173324,19.1949969 402.04,19.825 C403.906676,20.4550032 405.48166,21.2949948 406.765,22.345 C408.04834,23.3950052 409.016663,24.619993 409.67,26.02 C410.323337,27.420007 410.65,28.9133254 410.65,30.5 C410.65,32.1333415 410.34667,33.6149933 409.74,34.945 C409.13333,36.2750067 408.060008,37.4183285 406.52,38.375 C404.979992,39.3316715 402.903346,40.0783306 400.29,40.615 C397.676654,41.1516694 394.363353,41.42 390.35,41.42 C389.416662,41.42 388.541671,41.4083334 387.725,41.385 C386.908329,41.3616665 386.033338,41.3266669 385.1,41.28 C385.473335,43.6600119 386.628324,45.5849927 388.565,47.055 C390.501676,48.5250074 393.266649,49.26 396.86,49.26 C398.073339,49.26 399.193328,49.1666676 400.22,48.98 C401.246672,48.7933324 402.168329,48.5600014 402.985,48.28 C403.801671,47.9999986 404.501664,47.7200014 405.085,47.44 C405.668336,47.1599986 406.099999,46.9500007 406.38,46.81 L409.32,52.41 Z M384.75,35.82 C385.823339,35.8666669 386.849995,35.89 387.83,35.89 L390.77,35.89 C393.33668,35.89 395.413325,35.7266683 397,35.4 C398.586675,35.0733317 399.823329,34.6533359 400.71,34.14 C401.596671,33.6266641 402.179999,33.0433366 402.46,32.39 C402.740001,31.7366634 402.88,31.0600035 402.88,30.36 C402.88,28.5866578 402.16834,27.2566711 400.745,26.37 C399.32166,25.4833289 397.560011,25.04 395.46,25.04 C393.733325,25.04 392.216673,25.3433303 390.91,25.95 C389.603327,26.5566697 388.506671,27.3616616 387.62,28.365 C386.733329,29.3683384 386.045002,30.5233268 385.555,31.83 C385.064998,33.1366732 384.796667,34.4666599 384.75,35.82 Z M416.6,32.39 C416.6,28.0966452 417.91832,24.7716784 420.555,22.415 C423.19168,20.0583215 426.84331,18.88 431.51,18.88 C434.450015,18.88 436.841657,19.2883292 438.685,20.105 C440.528343,20.9216707 441.45,22.1699916 441.45,23.85 C441.45,24.6433373 441.228336,25.4133296 440.785,26.16 C440.341664,26.9066704 439.980001,27.3733324 439.7,27.56 C438.906663,27.1866648 437.926673,26.8366683 436.76,26.51 C435.593328,26.1833317 434.263341,26.02 432.77,26.02 C427.309973,26.02 424.58,28.9133044 424.58,34.7 L424.58,55 L416.6,55 L416.6,32.39 Z"/>
  </g>
</svg>
